<svg xmlns="http://www.w3.org/2000/svg" width="1200" height="720" viewBox="0 0 1200 720" role="img">
  
  <defs>
    <linearGradient id="bg-scene-06-day4" x1="0" y1="0" x2="1" y2="1">
      <stop offset="0" stop-color="#FFF9F2"/><stop offset="0.55" stop-color="#FFF1E8"/><stop offset="1" stop-color="#EAF7FA"/>
    </linearGradient>
    <linearGradient id="water-scene-06-day4" x1="0" y1="0" x2="1" y2="1">
      <stop offset="0" stop-color="#DDF7FC"/><stop offset="0.48" stop-color="#8FD2E5"/><stop offset="1" stop-color="#4E9DBA"/>
    </linearGradient>
    <linearGradient id="night-scene-06-day4" x1="0" y1="0" x2="0" y2="1">
      <stop offset="0" stop-color="#354B6D"/><stop offset="1" stop-color="#856F89"/>
    </linearGradient>
    <linearGradient id="desert-scene-06-day4" x1="0" y1="0" x2="1" y2="1">
      <stop offset="0" stop-color="#F8D8B5"/><stop offset="1" stop-color="#D9A978"/>
    </linearGradient>
    <filter id="soft-scene-06-day4" x="-30%" y="-30%" width="160%" height="160%"><feGaussianBlur stdDeviation="16"/></filter>
    <pattern id="dots-scene-06-day4" width="18" height="18" patternUnits="userSpaceOnUse"><circle cx="2" cy="2" r="1.2" fill="#9D7C7D" opacity="0.12"/></pattern>
    <clipPath id="panelA-scene-06-day4"><rect x="42" y="54" width="535" height="610" rx="30"/></clipPath>
    <clipPath id="panelB-scene-06-day4"><rect x="623" y="54" width="535" height="610" rx="30"/></clipPath>
  </defs>
  <rect width="1200" height="720" rx="34" fill="url(#bg-scene-06-day4)"/>
  <rect width="1200" height="720" rx="34" fill="url(#dots-scene-06-day4)"/>
  <path d="M40 113 C185 77 268 130 383 101 C545 60 622 76 753 105 C899 137 1027 76 1160 111" fill="none" stroke="#D4959F" stroke-width="3" stroke-linecap="round" opacity="0.22"/>
  <path d="M92 650 C250 618 371 669 512 637 C654 605 820 667 1100 616" fill="none" stroke="#78BCD1" stroke-width="3" stroke-linecap="round" opacity="0.24"/>
  <g>
    <rect x="42" y="54" width="535" height="610" rx="30" fill="#F3FAFB"/><rect x="623" y="54" width="535" height="610" rx="30" fill="#FFF2E9"/>
    <g transform="translate(282 391) scale(1.14)">
    <rect x="-76" y="-135" width="152" height="270" rx="24" fill="#4C3F4A"/>
    <rect x="-67" y="-124" width="134" height="248" rx="17" fill="#2E435C"/>
    <rect x="-22" y="-130" width="44" height="7" rx="4" fill="#221F26"/>
    <circle cx="0" cy="113" r="5" fill="#FFFFFF" opacity="0.65"/><g><rect x="-48" y="-82" width="96" height="42" rx="16" fill="#BFE8F0"/><rect x="-48" y="-25" width="78" height="38" rx="14" fill="#FFD3D8"/><circle cx="40" cy="67" r="12" fill="#EF91A2"/></g>
  </g>
    <g transform="translate(910 466)"><path d="M-158 -50 L158 -50 L126 106 L-126 106 Z" fill="#FFFDF9" stroke="#4C3F4A" stroke-width="5"/><path d="M-150 -43 Q0 -81 150 -43" fill="none" stroke="#E0A46D" stroke-width="14"/><path d="M-105 -105 Q-60 -175 0 -118 T108 -151" fill="none" stroke="#E8E8E8" stroke-width="9" stroke-linecap="round"/></g>
    <g transform="translate(698 218) rotate(-4)"><rect x="-92" y="-70" width="184" height="140" rx="27" fill="#FFFDF9" stroke="#4C3F4A" stroke-width="4"/><rect x="-60" y="-38" width="110" height="12" rx="6" fill="#EF91A2" opacity="0.62"/><rect x="-60" y="-8" width="136" height="10" rx="5" fill="#BFD8DE" opacity="0.75"/><rect x="-60" y="18" width="90" height="10" rx="5" fill="#BFD8DE" opacity="0.75"/><path d="M-18 70 L4 41 L27 70 Z" fill="#FFFDF9" stroke="#4C3F4A" stroke-width="4"/></g>
    <path d="M601 54 V664" stroke="#4C3F4A" stroke-width="5" stroke-dasharray="13 16" opacity="0.4"/><path d="M0 16 C-22 1 -28 -12 -19 -23 C-10 -34 4 -26 0 -13 C4 -26 18 -34 27 -23 C36 -12 25 2 0 16 Z" transform="translate(1018 192) scale(0.8)" fill="#EF91A2"/><path d="M0 -18 L5 -5 L18 0 L5 5 L0 18 L-5 5 L-18 0 L-5 -5 Z" transform="translate(536 146) scale(0.65)" fill="#FFE19A"/>
  </g>
  <rect x="10" y="10" width="1180" height="700" rx="31" fill="none" stroke="#4C3F4A" stroke-width="5" opacity="0.64"/>
  </svg>