<svg xmlns="http://www.w3.org/2000/svg" width="1200" height="720" viewBox="0 0 1200 720" role="img">
  
  <defs>
    <linearGradient id="bg-scene-02-task" x1="0" y1="0" x2="1" y2="1">
      <stop offset="0" stop-color="#FFF9F2"/><stop offset="0.55" stop-color="#FFF1E8"/><stop offset="1" stop-color="#EAF7FA"/>
    </linearGradient>
    <linearGradient id="water-scene-02-task" x1="0" y1="0" x2="1" y2="1">
      <stop offset="0" stop-color="#DDF7FC"/><stop offset="0.48" stop-color="#8FD2E5"/><stop offset="1" stop-color="#4E9DBA"/>
    </linearGradient>
    <linearGradient id="night-scene-02-task" x1="0" y1="0" x2="0" y2="1">
      <stop offset="0" stop-color="#354B6D"/><stop offset="1" stop-color="#856F89"/>
    </linearGradient>
    <linearGradient id="desert-scene-02-task" x1="0" y1="0" x2="1" y2="1">
      <stop offset="0" stop-color="#F8D8B5"/><stop offset="1" stop-color="#D9A978"/>
    </linearGradient>
    <filter id="soft-scene-02-task" x="-30%" y="-30%" width="160%" height="160%"><feGaussianBlur stdDeviation="16"/></filter>
    <pattern id="dots-scene-02-task" width="18" height="18" patternUnits="userSpaceOnUse"><circle cx="2" cy="2" r="1.2" fill="#9D7C7D" opacity="0.12"/></pattern>
    <clipPath id="panelA-scene-02-task"><rect x="42" y="54" width="535" height="610" rx="30"/></clipPath>
    <clipPath id="panelB-scene-02-task"><rect x="623" y="54" width="535" height="610" rx="30"/></clipPath>
  </defs>
  <rect width="1200" height="720" rx="34" fill="url(#bg-scene-02-task)"/>
  <rect width="1200" height="720" rx="34" fill="url(#dots-scene-02-task)"/>
  <path d="M40 113 C185 77 268 130 383 101 C545 60 622 76 753 105 C899 137 1027 76 1160 111" fill="none" stroke="#D4959F" stroke-width="3" stroke-linecap="round" opacity="0.22"/>
  <path d="M92 650 C250 618 371 669 512 637 C654 605 820 667 1100 616" fill="none" stroke="#78BCD1" stroke-width="3" stroke-linecap="round" opacity="0.24"/>
  <g>
    <g transform="translate(245 368) scale(1.17 1.17)">
    <ellipse cx="0" cy="137" rx="82" ry="19" fill="#4C3F4A" opacity="0.12"/>
    <path d="M-39 57 L-58 129" stroke="#F1B8A8" stroke-width="22" stroke-linecap="round"/>
    <path d="M34 57 L55 130" stroke="#F1B8A8" stroke-width="22" stroke-linecap="round"/>
    <path d="M-58 129 Q-53 146 -37 145 L-24 145 L-29 119 Z" fill="#D86D83"/>
    <path d="M55 130 Q54 148 35 147 L21 147 L29 119 Z" fill="#D86D83"/>
    <path d="M-50 21 Q0 -4 49 20 L61 80 Q35 103 0 94 Q-34 104 -62 79 Z" fill="#F8C96D" stroke="#4C3F4A" stroke-width="4"/>
    <path d="M-42 76 Q0 98 43 76 L53 108 Q0 126 -51 107 Z" fill="#E98C96" stroke="#4C3F4A" stroke-width="4"/>
    <path d="M-42 31 C-77 13 -87 -20 -73 -47" fill="none" stroke="#F1B8A8" stroke-width="21" stroke-linecap="round"/>
    <path d="M43 29 C70 21 79 0 76 -16" fill="none" stroke="#F1B8A8" stroke-width="21" stroke-linecap="round"/>
    <circle cx="0" cy="-34" r="57" fill="#FFD7C4" stroke="#4C3F4A" stroke-width="4"/>
    <path d="M-57 -37 Q-59 -97 -6 -105 Q54 -108 59 -41 Q38 -64 12 -65 Q-30 -60 -57 -37 Z" fill="#745348"/>
    <path d="M-53 -32 Q-58 -3 -42 19 Q-52 -7 -33 -38 Z" fill="#745348"/>
    <path d="M53 -32 Q60 -4 43 19 Q52 -8 33 -38 Z" fill="#745348"/>
    <path d="M-46 -47 Q-20 -69 7 -53 Q31 -71 51 -43 Q39 -22 8 -27 Q-6 -13 -27 -25 Q-42 -17 -46 -47 Z" fill="#9A6D5A" opacity="0.78"/>
    <path d="M-27 -29 Q-20 -35 -13 -29" fill="none" stroke="#4C3F4A" stroke-width="4" stroke-linecap="round"/>
    <path d="M13 -29 Q20 -35 27 -29" fill="none" stroke="#4C3F4A" stroke-width="4" stroke-linecap="round"/>
    <circle cx="-37" cy="-12" r="9" fill="#F6A6AE" opacity="0.55"/><circle cx="37" cy="-12" r="9" fill="#F6A6AE" opacity="0.55"/>
    <path d="M-8 -5 Q0 5 9 -4" fill="none" stroke="#4C3F4A" stroke-width="3.4" stroke-linecap="round"/>
    
    
  </g>
    <g transform="translate(777 338) rotate(-3)">
      <rect x="-196" y="-270" width="392" height="540" rx="56" fill="#4C3F4A"/><rect x="-178" y="-250" width="356" height="500" rx="40" fill="#EFFBFD"/>
      <circle cx="0" cy="-184" r="72" fill="#C9EFF5"/><path d="M0 -28 C12 -10 24 1 24 16 C24 33 12 44 0 44 C-12 44 -24 33 -24 16 C-24 1 -12 -10 0 -28 Z" transform="translate(0 -184) scale(1.56)" fill="#4E9DBA" opacity="0.9"/>
      <rect x="-119" y="-64" width="238" height="13" rx="6.5" fill="#4E9DBA" opacity="0.78"/><rect x="-119" y="-30" width="197" height="11" rx="5.5" fill="#84C1D3" opacity="0.7"/><rect x="-119" y="2" width="220" height="11" rx="5.5" fill="#84C1D3" opacity="0.72"/>
      <rect x="-119" y="63" width="238" height="68" rx="24" fill="#FFF0F2"/><path d="M-32 86 H39 M3 71 V124" stroke="#D86D83" stroke-width="9" stroke-linecap="round"/>
      <rect x="-112" y="169" width="224" height="13" rx="6" fill="#EF91A2" opacity="0.72"/><rect x="-112" y="195" width="178" height="11" rx="5" fill="#8FD2E5" opacity="0.58"/>
    </g>
    <path d="M0 -28 C12 -10 24 1 24 16 C24 33 12 44 0 44 C-12 44 -24 33 -24 16 C-24 1 -12 -10 0 -28 Z" transform="translate(568 172) scale(0.8)" fill="#8FD2E5" opacity="0.72"/><path d="M0 -28 C12 -10 24 1 24 16 C24 33 12 44 0 44 C-12 44 -24 33 -24 16 C-24 1 -12 -10 0 -28 Z" transform="translate(1050 125) scale(0.55)" fill="#EF91A2" opacity="0.6"/><path d="M0 -18 L5 -5 L18 0 L5 5 L0 18 L-5 5 L-18 0 L-5 -5 Z" transform="translate(1010 523) scale(0.82)" fill="#FFE19A"/>
  </g>
  <rect x="10" y="10" width="1180" height="700" rx="31" fill="none" stroke="#4C3F4A" stroke-width="5" opacity="0.64"/>
  </svg>