<svg xmlns="http://www.w3.org/2000/svg" width="1200" height="720" viewBox="0 0 1200 720" role="img">
  
  <defs>
    <linearGradient id="bg-scene-08-day6" x1="0" y1="0" x2="1" y2="1">
      <stop offset="0" stop-color="#FFF9F2"/><stop offset="0.55" stop-color="#FFF1E8"/><stop offset="1" stop-color="#EAF7FA"/>
    </linearGradient>
    <linearGradient id="water-scene-08-day6" x1="0" y1="0" x2="1" y2="1">
      <stop offset="0" stop-color="#DDF7FC"/><stop offset="0.48" stop-color="#8FD2E5"/><stop offset="1" stop-color="#4E9DBA"/>
    </linearGradient>
    <linearGradient id="night-scene-08-day6" x1="0" y1="0" x2="0" y2="1">
      <stop offset="0" stop-color="#354B6D"/><stop offset="1" stop-color="#856F89"/>
    </linearGradient>
    <linearGradient id="desert-scene-08-day6" x1="0" y1="0" x2="1" y2="1">
      <stop offset="0" stop-color="#F8D8B5"/><stop offset="1" stop-color="#D9A978"/>
    </linearGradient>
    <filter id="soft-scene-08-day6" x="-30%" y="-30%" width="160%" height="160%"><feGaussianBlur stdDeviation="16"/></filter>
    <pattern id="dots-scene-08-day6" width="18" height="18" patternUnits="userSpaceOnUse"><circle cx="2" cy="2" r="1.2" fill="#9D7C7D" opacity="0.12"/></pattern>
    <clipPath id="panelA-scene-08-day6"><rect x="42" y="54" width="535" height="610" rx="30"/></clipPath>
    <clipPath id="panelB-scene-08-day6"><rect x="623" y="54" width="535" height="610" rx="30"/></clipPath>
  </defs>
  <rect width="1200" height="720" rx="34" fill="url(#bg-scene-08-day6)"/>
  <rect width="1200" height="720" rx="34" fill="url(#dots-scene-08-day6)"/>
  <path d="M40 113 C185 77 268 130 383 101 C545 60 622 76 753 105 C899 137 1027 76 1160 111" fill="none" stroke="#D4959F" stroke-width="3" stroke-linecap="round" opacity="0.22"/>
  <path d="M92 650 C250 618 371 669 512 637 C654 605 820 667 1100 616" fill="none" stroke="#78BCD1" stroke-width="3" stroke-linecap="round" opacity="0.24"/>
  <g>
    <rect x="42" y="54" width="535" height="610" rx="30" fill="#F1FAFC"/><rect x="623" y="54" width="535" height="610" rx="30" fill="#3F3A4C"/>
    <g transform="translate(287 421) scale(1.18)">
    <rect x="-76" y="-135" width="152" height="270" rx="24" fill="#4C3F4A"/>
    <rect x="-67" y="-124" width="134" height="248" rx="17" fill="#354B6D"/>
    <rect x="-22" y="-130" width="44" height="7" rx="4" fill="#221F26"/>
    <circle cx="0" cy="113" r="5" fill="#FFFFFF" opacity="0.65"/><g><rect x="-60" y="-96" width="120" height="78" rx="17" fill="#C9EFF5"/><path d="M-32 -57 l22 -24 19 19 27 -28" fill="none" stroke="#506F82" stroke-width="7" stroke-linecap="round"/><circle cx="50" cy="66" r="16" fill="#FFE39A"/></g>
  </g>
    <rect x="698" y="176" width="330" height="258" rx="24" fill="#C9EFF5" stroke="#4C3F4A" stroke-width="8"/><path d="M738 356 L810 270 L863 326 L929 239 L993 315" fill="none" stroke="#506F82" stroke-width="9" stroke-linecap="round"/><circle cx="785" cy="226" r="24" fill="#FFE39A"/>
    <path d="M637 54 V664" stroke="#4C3F4A" stroke-width="5" stroke-dasharray="13 16" opacity="0.5"/>
    <g transform="translate(834 509)"><rect x="-104" y="-52" width="208" height="104" rx="28" fill="#FFF7E8"/><path d="M-58 15 V-19 L-24 15 L-58 15 Z M-9 15 V-19 L25 15 L-9 15 Z M42 15 V-19 L76 15 L42 15 Z" fill="#FFD3D8"/></g>
    <path d="M0 16 C-22 1 -28 -12 -19 -23 C-10 -34 4 -26 0 -13 C4 -26 18 -34 27 -23 C36 -12 25 2 0 16 Z" transform="translate(552 126) scale(0.75)" fill="#EF91A2"/><path d="M0 -18 L5 -5 L18 0 L5 5 L0 18 L-5 5 L-18 0 L-5 -5 Z" transform="translate(1110 144) scale(0.7)" fill="#FFE19A"/>
  </g>
  <rect x="10" y="10" width="1180" height="700" rx="31" fill="none" stroke="#4C3F4A" stroke-width="5" opacity="0.64"/>
  </svg>