<svg xmlns="http://www.w3.org/2000/svg" width="1200" height="720" viewBox="0 0 1200 720" role="img">
  
  <defs>
    <linearGradient id="bg-scene-05-beast" x1="0" y1="0" x2="1" y2="1">
      <stop offset="0" stop-color="#FFF9F2"/><stop offset="0.55" stop-color="#FFF1E8"/><stop offset="1" stop-color="#EAF7FA"/>
    </linearGradient>
    <linearGradient id="water-scene-05-beast" x1="0" y1="0" x2="1" y2="1">
      <stop offset="0" stop-color="#DDF7FC"/><stop offset="0.48" stop-color="#8FD2E5"/><stop offset="1" stop-color="#4E9DBA"/>
    </linearGradient>
    <linearGradient id="night-scene-05-beast" x1="0" y1="0" x2="0" y2="1">
      <stop offset="0" stop-color="#354B6D"/><stop offset="1" stop-color="#856F89"/>
    </linearGradient>
    <linearGradient id="desert-scene-05-beast" x1="0" y1="0" x2="1" y2="1">
      <stop offset="0" stop-color="#F8D8B5"/><stop offset="1" stop-color="#D9A978"/>
    </linearGradient>
    <filter id="soft-scene-05-beast" x="-30%" y="-30%" width="160%" height="160%"><feGaussianBlur stdDeviation="16"/></filter>
    <pattern id="dots-scene-05-beast" width="18" height="18" patternUnits="userSpaceOnUse"><circle cx="2" cy="2" r="1.2" fill="#9D7C7D" opacity="0.12"/></pattern>
    <clipPath id="panelA-scene-05-beast"><rect x="42" y="54" width="535" height="610" rx="30"/></clipPath>
    <clipPath id="panelB-scene-05-beast"><rect x="623" y="54" width="535" height="610" rx="30"/></clipPath>
  </defs>
  <rect width="1200" height="720" rx="34" fill="url(#bg-scene-05-beast)"/>
  <rect width="1200" height="720" rx="34" fill="url(#dots-scene-05-beast)"/>
  <path d="M40 113 C185 77 268 130 383 101 C545 60 622 76 753 105 C899 137 1027 76 1160 111" fill="none" stroke="#D4959F" stroke-width="3" stroke-linecap="round" opacity="0.22"/>
  <path d="M92 650 C250 618 371 669 512 637 C654 605 820 667 1100 616" fill="none" stroke="#78BCD1" stroke-width="3" stroke-linecap="round" opacity="0.24"/>
  <g>
    <rect x="35" y="45" width="1130" height="630" rx="32" fill="#E8C89F"/><circle cx="1015" cy="155" r="76" fill="#EFCFA4" opacity="0.78"/>
    <path d="M0 458 Q178 361 355 471 T715 452 T1200 432 L1200 720 L0 720 Z" fill="#E1BE91" opacity="0.7"/>
    <path d="M630 118 L840 285 L707 285 L707 538 L552 538 L552 285 L420 285 Z" fill="#4A4151" opacity="0.8"/><path d="M455 286 L601 154 L599 312 Z M809 286 L654 158 L665 313 Z" fill="#4A4151"/><rect x="590" y="373" width="82" height="165" rx="12" fill="#312A38"/>
    <g transform="translate(315 492) rotate(-10) scale(1.1)">
    <rect x="-19" y="-74" width="38" height="18" rx="7" fill="#EF91A2"/>
    <path d="M-15 -55 L-15 -37 L-34 -17 L-34 70 Q-34 88 -16 88 L16 88 Q34 88 34 70 L34 -17 L15 -37 L15 -55 Z" fill="#FFFFFF" stroke="#4C3F4A" stroke-width="4"/>
    <clipPath id="bottleClip-315-492"><path d="M-15 -42 L-15 -31 L-30 -13 L-30 68 Q-30 84 -14 84 L14 84 Q30 84 30 68 L30 -13 L15 -31 L15 -42 Z"/></clipPath>
    <g clip-path="url(#bottleClip-315-492)"><rect x="-34" y="-15.200000000000003" width="68" height="170" fill="#8FD2E5"/><path d="M-36 -15.200000000000003 Q-22 -24.200000000000003 -7 -15.200000000000003 T23 -15.200000000000003 T52 -15.200000000000003" fill="none" stroke="#EAFBFF" stroke-width="6" opacity="0.72"/></g>
    <rect x="-25" y="-9" width="8" height="39" rx="4" fill="#FFFFFF" opacity="0.35"/>
  </g><path d="M690 592 q30 -24 60 0 q30 24 60 0 q30 -24 60 0" fill="none" stroke="#C49A70" stroke-width="7" stroke-linecap="round" opacity="0.7"/>
    <path d="M0 -28 C12 -10 24 1 24 16 C24 33 12 44 0 44 C-12 44 -24 33 -24 16 C-24 1 -12 -10 0 -28 Z" transform="translate(386 342) scale(0.75)" fill="#8FD2E5" opacity="0.74"/><path d="M0 -18 L5 -5 L18 0 L5 5 L0 18 L-5 5 L-18 0 L-5 -5 Z" transform="translate(1070 522) scale(0.74)" fill="#FFE19A"/>
  </g>
  <rect x="10" y="10" width="1180" height="700" rx="31" fill="none" stroke="#4C3F4A" stroke-width="5" opacity="0.64"/>
  </svg>